<svg xmlns="http://www.w3.org/2000/svg" xmlns:xlink="http://www.w3.org/1999/xlink" viewBox="0 0 61 81" fill="#fff" fill-rule="evenodd" stroke="#000" stroke-linecap="round" stroke-linejoin="round"><use xlink:href="#A" x=".5" y=".5"/><symbol id="A" overflow="visible"><g fill="#0072c6" stroke="none"><path d="M0 10.93v58.14C0 75.106 13.432 80 30 80V10.93H0z"/><use xlink:href="#C"/></g><use xlink:href="#C" opacity=".15" stroke="none"/><path d="M60 10.93c0 6.036-13.432 10.93-30 10.93S0 16.965 0 10.93 13.432 0 30 0s30 4.893 30 10.93" stroke="none"/><path d="M53.866 10.3c0 3.985-10.685 7.21-23.866 7.21S6.132 14.284 6.132 10.3 16.82 3.088 30 3.088s23.866 3.228 23.866 7.21" fill="#7fba00" stroke="none"/><path d="M48.867 14.707c3.124-1.22 5.002-2.745 5.002-4.404C53.868 6.318 43.183 3.1 30 3.1S6.134 6.318 6.134 10.303c0 1.658 1.877 3.185 5.002 4.404C15.5 13.003 22.318 11.904 30 11.904s14.5 1.1 18.866 2.803" fill="#b8d432" stroke="none"/><path d="M20.472 51.287c0 1.807-.65 3.206-1.955 4.197s-3.102 1.488-5.4 1.488c-1.954 0-3.587-.354-4.9-1.063v-4.25C9.73 52.952 11.4 53.6 13.22 53.6c.88 0 1.56-.177 2.04-.532s.72-.823.72-1.4c0-.575-.23-1.075-.693-1.5s-1.402-.974-2.82-1.647c-2.888-1.362-4.33-3.224-4.33-5.577 0-1.708.63-3.078 1.9-4.1s2.93-1.547 5.016-1.547c1.85 0 3.38.245 4.596.73v3.97c-1.276-.886-2.73-1.328-4.357-1.328-.818 0-1.465.174-1.94.523a1.65 1.65 0 0 0-.712 1.4c0 .602.2 1.096.575 1.48s1.168.86 2.356 1.428c1.77.842 3.03 1.695 3.784 2.563s1.125 1.95 1.125 3.24zm20.37-4.302c0 2.24-.507 4.185-1.52 5.83s-2.438 2.8-4.277 3.466l5.5 5.113H34.99l-3.92-4.423c-1.68-.06-3.198-.5-4.55-1.34s-2.395-1.972-3.13-3.42-1.103-3.062-1.103-4.84c0-1.974.398-3.734 1.194-5.28s1.916-2.734 3.36-3.566 3.097-1.248 4.965-1.248c1.74 0 3.302.403 4.68 1.2s2.446 1.95 3.208 3.44 1.144 3.175 1.144 5.06zm-4.488.24c0-1.93-.418-3.455-1.255-4.576s-1.98-1.68-3.433-1.68c-1.48 0-2.662.562-3.552 1.685s-1.333 2.62-1.333 4.5c0 1.86.435 3.344 1.306 4.455s2.028 1.666 3.472 1.666c1.47 0 2.636-.538 3.5-1.613s1.296-2.55 1.296-4.426zm18.893 9.415H43.972V37.596h4.264V53.16h7z" stroke="none"/></symbol><defs ><path id="C" d="M29.59 80H30c16.568 0 30-4.892 30-10.93V10.93H29.59V80z"/></defs></svg>